<svg xmlns="http://www.w3.org/2000/svg" xmlns:xlink="http://www.w3.org/1999/xlink" xmlns:lucid="lucid" width="2700" height="1258"><g transform="translate(1060 258)" lucid:page-tab-id="0_0"><path d="M0 0h1760v1360H0z" fill="#fff"/><path d="M400 920c0 22.1-17.9 40-40 40s-40-17.9-40-40 17.9-40 40-40 40 17.9 40 40z" stroke="#000" stroke-width="2" fill="#fff"/><use xlink:href="#a" transform="matrix(1,0,0,1,325,885) translate(13.524999999999999 27.799999999999997)"/><use xlink:href="#b" transform="matrix(1,0,0,1,325,885) translate(22.025 49.4)"/><path d="M720 920c0 22.1-17.9 40-40 40s-40-17.9-40-40 17.9-40 40-40 40 17.9 40 40z" stroke="#000" stroke-width="2" fill="#fff"/><use xlink:href="#a" transform="matrix(1,0,0,1,645,885) translate(13.524999999999999 27.799999999999997)"/><use xlink:href="#b" transform="matrix(1,0,0,1,645,885) translate(22.025 49.4)"/><path d="M500 613.4h40v53.2h-40z" stroke="#000" stroke-width="2" fill="#fff"/><use xlink:href="#c" transform="matrix(1,0,0,1,505,618.4) translate(-5.975000000000001 14.799999999999999)"/><use xlink:href="#b" transform="matrix(1,0,0,1,505,618.4) translate(2.0250000000000004 36.4)"/><path d="M485 936c-8.28 0-15-7.16-15-16 0-7.07 4.06-13.03 10.36-15.22C480 884 505 880 515 888c5-12 30-8 30 4 15-4 30 12 20 32 10 16 0 36-20 28-5 10.4-25 10.4-30 0-10 8-30 4-30-16z" stroke="#000" stroke-width="2" fill="#fff"/><use xlink:href="#d" transform="matrix(1,0,0,1,475,885) translate(24.549999999999997 27.799999999999997)"/><use xlink:href="#e" transform="matrix(1,0,0,1,475,885) translate(20.5 49.4)"/><path d="M360 879l149-196.86" stroke="#000" stroke-width="2" fill="none"/><path d="M360.8 879.6l-.33.43-.47-.03-2.07.07 1.27-1.67zM513.13 684.35l-7.4-5.6 12.32-8.57z"/><path d="M513.63 685.98l-9.6-7.26L520 667.6zm-6.2-7.2l5.2 3.94 3.46-9.96z"/><path d="M680 879L531 682.14" stroke="#000" stroke-width="2" fill="none"/><path d="M682.1 880.13L680 880l-.48.02-.32-.42 1.6-1.2zM534.26 678.76l-7.4 5.6-4.9-14.18z"/><path d="M535.96 678.72l-9.6 7.26L520 667.6zm-8.6 4l5.2-3.93-8.65-6.04z"/><path d="M520 881.6V685.84" stroke="#000" stroke-width="2" fill="none"/><path d="M521 882.25l-1.23.55-.77.52v-1.72h2zM524.64 685.1h-9.28l4.64-14.26z"/><path d="M526 686.1h-12l6-18.5zm-9.26-2h6.52L520 674.07z"/><path d="M1300 940c0 22.1-17.9 40-40 40s-40-17.9-40-40 17.9-40 40-40 40 17.9 40 40z" stroke="#000" stroke-width="2" fill="#fff"/><use xlink:href="#a" transform="matrix(1,0,0,1,1225,905) translate(13.524999999999999 27.799999999999997)"/><use xlink:href="#b" transform="matrix(1,0,0,1,1225,905) translate(22.025 49.4)"/><path d="M1620 940c0 22.1-17.9 40-40 40s-40-17.9-40-40 17.9-40 40-40 40 17.9 40 40z" stroke="#000" stroke-width="2" fill="#fff"/><use xlink:href="#a" transform="matrix(1,0,0,1,1545,905) translate(13.524999999999999 27.799999999999997)"/><use xlink:href="#b" transform="matrix(1,0,0,1,1545,905) translate(22.025 49.4)"/><path d="M1400 633.4h40v53.2h-40z" stroke="#000" stroke-width="2" fill="#fff"/><use xlink:href="#c" transform="matrix(1,0,0,1,1405,638.4) translate(-5.975000000000001 14.799999999999999)"/><use xlink:href="#b" transform="matrix(1,0,0,1,1405,638.4) translate(2.0250000000000004 36.4)"/><path d="M1385 956c-8.28 0-15-7.16-15-16 0-7.07 4.06-13.03 10.36-15.22C1380 904 1405 900 1415 908c5-12 30-8 30 4 15-4 30 12 20 32 10 16 0 36-20 28-5 10.4-25 10.4-30 0-10 8-30 4-30-16z" stroke="#000" stroke-width="2" fill="#fff"/><use xlink:href="#d" transform="matrix(1,0,0,1,1375,905) translate(24.549999999999997 27.799999999999997)"/><use xlink:href="#e" transform="matrix(1,0,0,1,1375,905) translate(20.5 49.4)"/><path d="M1260 899l149-196.86" stroke="#000" stroke-width="2" fill="none"/><path d="M1260.8 899.6l-.33.43-.47-.03-2.07.07 1.27-1.67zM1413.13 704.35l-7.4-5.6 12.32-8.57z"/><path d="M1413.63 705.98l-9.6-7.26L1420 687.6zm-6.2-7.2l5.2 3.94 3.46-9.96z"/><path d="M1580 899l-149-196.86" stroke="#000" stroke-width="2" fill="none"/><path d="M1582.1 900.13l-2.1-.13-.48.02-.32-.42 1.6-1.2zM1434.26 698.76l-7.4 5.6-4.9-14.18z"/><path d="M1435.96 698.72l-9.6 7.26-6.36-18.38zm-8.6 4l5.2-3.93-8.65-6.04z"/><path d="M1420 901.6V705.84" stroke="#000" stroke-width="2" fill="none"/><path d="M1421 902.25l-1.23.55-.77.52v-1.72h2zM1424.64 705.1h-9.28l4.64-14.26z"/><path d="M1426 706.1h-12l6-18.5zm-9.26-2h6.52l-3.26-10.03z"/><path d="M914 824c-13.25 0-24-10.75-24-24 0-10.6 6.5-19.55 16.58-22.83C906 746 946 740 962 752c8-18 48-12 48 6 24-6 48 18 32 48 16 24 0 54-32 42-8 15.6-40 15.6-48 0-16 12-48 6-48-24z" stroke="#000" stroke-width="2" fill="#fff"/><use xlink:href="#f" transform="matrix(1,0,0,1,895,745) translate(21.099999999999994 58.6)"/><use xlink:href="#g" transform="matrix(1,0,0,1,895,745) translate(67 58.6)"/><path d="M600 240c0 44.18-35.82 80-80 80s-80-35.82-80-80 35.82-80 80-80 80 35.82 80 80z" stroke="#000" stroke-width="2" fill="#fff"/><use xlink:href="#h" transform="matrix(1,0,0,1,445,165) translate(46.025 78.60000000000001)"/><use xlink:href="#i" transform="matrix(1,0,0,1,445,165) translate(93.975 78.60000000000001)"/><path d="M1500 240c0 44.18-35.82 80-80 80s-80-35.82-80-80 35.82-80 80-80 80 35.82 80 80z" stroke="#000" stroke-width="2" fill="#fff"/><use xlink:href="#h" transform="matrix(1,0,0,1,1345,165) translate(46.025 78.60000000000001)"/><use xlink:href="#i" transform="matrix(1,0,0,1,1345,165) translate(93.975 78.60000000000001)"/><path d="M904 264c-13.25 0-24-10.75-24-24 0-10.6 6.5-19.55 16.58-22.83C896 186 936 180 952 192c8-18 48-12 48 6 24-6 48 18 32 48 16 24 0 54-32 42-8 15.6-40 15.6-48 0-16 12-48 6-48-24z" stroke="#000" stroke-width="2" fill="#fff"/><use xlink:href="#f" transform="matrix(1,0,0,1,885,185) translate(26.074999999999996 58.6)"/><use xlink:href="#j" transform="matrix(1,0,0,1,885,185) translate(71.975 58.6)"/><path d="M880-200h160v120H880z" stroke="#000" stroke-width="2" fill="#fff"/><use xlink:href="#k" transform="matrix(1,0,0,1,885,-195) translate(45.525 58.6)"/><use xlink:href="#i" transform="matrix(1,0,0,1,885,-195) translate(94.475 58.6)"/><path d="M520 159L943.96-70.32" stroke="#000" stroke-width="2" fill="none"/><path d="M520.48 159.88l-.24.13h-.92l-2.14.1-.3-.55 2.64-1.43zM946.8-66.6l-4.4-8.15 14.75-2.7z"/><path d="M946.6-64.9l-5.73-10.6L960-79zm-2.67-9.12l3.1 5.74 7.28-7.64z"/><path d="M960 182.92V-60.76" stroke="#000" stroke-width="2" fill="none"/><path d="M961 183.56l-.2.07-1.8.93v-1.64h2zM964.64-61.5h-9.28L960-75.76z"/><path d="M966-60.5h-12l6-18.5zm-9.26-2h6.52L960-72.53z"/><path d="M1420 159L976.2-70.62" stroke="#000" stroke-width="2" fill="none"/><path d="M1423.12 159.5l-.3.6-2.82-.1h-.24l-.22-.1.92-1.8zM977.67-75.07l-4.26 8.23-10.53-10.67z"/><path d="M979.2-75.84l-5.53 10.68L960-79zm-6.04 7.32l3-5.8-10.4-1.7z"/><path d="M520 612.4V339.24" stroke="#000" stroke-width="2" fill="none"/><path d="M521 613.4h-2v-1h2zM524.64 338.5h-9.28l4.64-14.26z"/><path d="M526 339.5h-12l6-18.5zm-9.26-2h6.52L520 327.47z"/><path d="M520 612.4l441.12-301.46" stroke="#000" stroke-width="2" fill="none"/><path d="M520.56 613.23l-.25.17h-3.25l-.1-.13 2.5-1.7zM964.34 314.35l-5.23-7.65 14.4-4.23z"/><path d="M964.3 316.05l-6.8-9.93 18.67-5.47zm-3.6-8.78l3.7 5.38 6.43-8.35z"/><path d="M520 612.4l882.65-285.78" stroke="#000" stroke-width="2" fill="none"/><path d="M520.3 613.35l-.14.05h-3l-.32-1.03 2.85-.92zM1416.92 322l-12.14 8.8-2.86-8.82z"/><path d="M1420 321l-15.75 11.42-3.7-11.44zm-14.7 8.18l8.54-6.2h-10.54z"/><path d="M1420 632.4V339.24" stroke="#000" stroke-width="2" fill="none"/><path d="M1421 633.4h-2v-1h2zM1424.64 338.5h-9.28l4.64-14.26z"/><path d="M1426 339.5h-12l6-18.5zm-9.26-2h6.52l-3.26-10.03z"/><path d="M1420 632.4L990.78 311.57" stroke="#000" stroke-width="2" fill="none"/><path d="M1423 633.4h-3.33l-.27-.2 1.2-1.6zM992.97 307.4l-5.55 7.44-8.66-12.25z"/><path d="M994.6 306.9l-7.2 9.64-11.23-15.9zm-7.16 6.24l3.9-5.22-9.98-3.4z"/><path d="M1420 632.4L537.23 326.96" stroke="#000" stroke-width="2" fill="none"/><path d="M1423.16 632.44l-.33.96h-3l-.16-.05.66-1.9zM538.06 322.34l-3.04 8.76-11.96-9.04z"/><path d="M539.45 321.37l-3.93 11.36L520 321zm-4.92 8.1l2.13-6.15-10.54-.2z"/><path d="M950 653.4h40v53.2h-40z" stroke="#000" stroke-width="2" fill="#fff"/><use xlink:href="#c" transform="matrix(1,0,0,1,955,658.4) translate(-5.975000000000001 14.799999999999999)"/><use xlink:href="#i" transform="matrix(1,0,0,1,955,658.4) translate(10 36.4)"/><path d="M970 742.92v-17.08" stroke="#000" stroke-width="2" fill="none"/><path d="M971 743.56l-.2.07-1.8.93v-1.64h2zM974.64 725.1h-9.28l4.64-14.26z"/><path d="M976 726.1h-12l6-18.5zm-9.26-2h6.52L970 714.07z"/><path d="M970 652.4l5.85-333.52" stroke="#000" stroke-width="2" fill="none"/><path d="M971 652.42l-.02.98h-2l.02-1.02zM980.5 318.23l-9.27-.16 4.9-14.2z"/><path d="M981.86 319.25l-12.02-.2 6.33-18.4zm-9.24-2.16l6.52.1-3.08-10.08z"/><path d="M970 652.4l435.32-320.6" stroke="#000" stroke-width="2" fill="none"/><path d="M970.6 653.2l-.27.2H967v-.03l2.4-1.78zM1408.66 335.1l-5.5-7.45 14.23-4.73z"/><path d="M1408.67 336.8l-7.13-9.67L1420 321zm-3.9-8.64l3.88 5.25 6.14-8.56z"/><path d="M970 652.4L534.68 331.8" stroke="#000" stroke-width="2" fill="none"/><path d="M973 653.37v.03h-3.33l-.26-.2 1.2-1.6zM536.84 327.65l-5.5 7.46-8.73-12.18z"/><path d="M538.46 327.13l-7.13 9.68L520 321zm-7.1 6.28l3.86-5.24-10-3.32z"/><path d="M782.55-111.38L647.5 6.84l31.68 36.2-135.8-9 9.03-135.8 31.7 36.2L719.16-183.8z" stroke="#000" stroke-width="2" fill="#fff"/><use xlink:href="#k" transform="matrix(0.7524344067762895,-0.658667187203988,0.658667187203988,0.7524344067762895,487.0555079699015,-37.91643650122296) translate(17.049999999999997 84.30000000000001)"/><use xlink:href="#l" transform="matrix(0.7524344067762895,-0.658667187203988,0.658667187203988,0.7524344067762895,487.0555079699015,-37.91643650122296) translate(66 84.30000000000001)"/><use xlink:href="#m" transform="matrix(0.7524344067762895,-0.658667187203988,0.658667187203988,0.7524344067762895,487.0555079699015,-37.91643650122296) translate(142.95 84.30000000000001)"/><use xlink:href="#n" transform="matrix(0.7524344067762895,-0.658667187203988,0.658667187203988,0.7524344067762895,487.0555079699015,-37.91643650122296) translate(162.95 84.30000000000001)"/><use xlink:href="#o" transform="matrix(0.7524344067762895,-0.658667187203988,0.658667187203988,0.7524344067762895,487.0555079699015,-37.91643650122296) translate(64.125 105.9)"/><use xlink:href="#p" transform="matrix(0.7524344067762895,-0.658667187203988,0.658667187203988,0.7524344067762895,487.0555079699015,-37.91643650122296) translate(103.075 105.9)"/><use xlink:href="#q" transform="matrix(0.7524344067762895,-0.658667187203988,0.658667187203988,0.7524344067762895,487.0555079699015,-37.91643650122296) translate(117.025 105.9)"/><use xlink:href="#r" transform="matrix(0.7524344067762895,-0.658667187203988,0.658667187203988,0.7524344067762895,487.0555079699015,-37.91643650122296) translate(165.97500000000002 105.9)"/><g><path d="M427.83 694.7l-57.76 50.56 12.16 13.9-52.13-3.46 3.47-52.13 12.16 13.9 57.77-50.57z" stroke="#000" stroke-width="2" fill="#fff"/></g><g><use xlink:href="#s" transform="matrix(0.7524344067762895,-0.658667187203988,0.658667187203988,0.7524344067762895,312.8250064783854,728.3696324708975) translate(30.025 14.4)"/><use xlink:href="#l" transform="matrix(0.7524344067762895,-0.658667187203988,0.658667187203988,0.7524344067762895,312.8250064783854,728.3696324708975) translate(6.024999999999999 36)"/><use xlink:href="#t" transform="matrix(0.7524344067762895,-0.658667187203988,0.658667187203988,0.7524344067762895,312.8250064783854,728.3696324708975) translate(82.975 36)"/><use xlink:href="#n" transform="matrix(0.7524344067762895,-0.658667187203988,0.658667187203988,0.7524344067762895,312.8250064783854,728.3696324708975) translate(9 57.6)"/><use xlink:href="#o" transform="matrix(0.7524344067762895,-0.658667187203988,0.658667187203988,0.7524344067762895,312.8250064783854,728.3696324708975) translate(3.5749999999999957 79.20000000000002)"/><use xlink:href="#p" transform="matrix(0.7524344067762895,-0.658667187203988,0.658667187203988,0.7524344067762895,312.8250064783854,728.3696324708975) translate(42.525 79.20000000000002)"/><use xlink:href="#u" transform="matrix(0.7524344067762895,-0.658667187203988,0.658667187203988,0.7524344067762895,312.8250064783854,728.3696324708975) translate(56.475 79.20000000000002)"/><use xlink:href="#r" transform="matrix(0.7524344067762895,-0.658667187203988,0.658667187203988,0.7524344067762895,312.8250064783854,728.3696324708975) translate(34.05 100.80000000000001)"/></g><g><path d="M1525.75 710.42l43.32 63.4 15.25-10.43-9.66 51.33-51.35-9.66 15.26-10.42-43.3-63.4z" stroke="#000" stroke-width="2" fill="#fff"/></g><g><use xlink:href="#s" transform="matrix(-0.5641865137925788,-0.8256473688291972,0.8256473688291972,-0.5641865137925788,1545.4641652923146,828.6259073547985) translate(30.025 14.4)"/><use xlink:href="#l" transform="matrix(-0.5641865137925788,-0.8256473688291972,0.8256473688291972,-0.5641865137925788,1545.4641652923146,828.6259073547985) translate(6.024999999999999 36)"/><use xlink:href="#t" transform="matrix(-0.5641865137925788,-0.8256473688291972,0.8256473688291972,-0.5641865137925788,1545.4641652923146,828.6259073547985) translate(82.975 36)"/><use xlink:href="#n" transform="matrix(-0.5641865137925788,-0.8256473688291972,0.8256473688291972,-0.5641865137925788,1545.4641652923146,828.6259073547985) translate(9 57.6)"/><use xlink:href="#o" transform="matrix(-0.5641865137925788,-0.8256473688291972,0.8256473688291972,-0.5641865137925788,1545.4641652923146,828.6259073547985) translate(3.5749999999999957 79.20000000000002)"/><use xlink:href="#p" transform="matrix(-0.5641865137925788,-0.8256473688291972,0.8256473688291972,-0.5641865137925788,1545.4641652923146,828.6259073547985) translate(42.525 79.20000000000002)"/><use xlink:href="#u" transform="matrix(-0.5641865137925788,-0.8256473688291972,0.8256473688291972,-0.5641865137925788,1545.4641652923146,828.6259073547985) translate(56.475 79.20000000000002)"/><use xlink:href="#r" transform="matrix(-0.5641865137925788,-0.8256473688291972,0.8256473688291972,-0.5641865137925788,1545.4641652923146,828.6259073547985) translate(34.05 100.80000000000001)"/></g><g><path d="M1202.07-203.98L1329-77.05l34.02-34.03v136.1h-136.1L1260.95-9l-126.93-126.93z" stroke="#000" stroke-width="2" fill="#fff"/></g><g><use xlink:href="#k" transform="matrix(-0.7071067811865475,-0.7071067811865476,0.7071067811865476,-0.7071067811865475,1294.9710078221372,85.99722441263145) translate(17.049999999999997 84.30000000000001)"/><use xlink:href="#l" transform="matrix(-0.7071067811865475,-0.7071067811865476,0.7071067811865476,-0.7071067811865475,1294.9710078221372,85.99722441263145) translate(66 84.30000000000001)"/><use xlink:href="#m" transform="matrix(-0.7071067811865475,-0.7071067811865476,0.7071067811865476,-0.7071067811865475,1294.9710078221372,85.99722441263145) translate(142.95 84.30000000000001)"/><use xlink:href="#n" transform="matrix(-0.7071067811865475,-0.7071067811865476,0.7071067811865476,-0.7071067811865475,1294.9710078221372,85.99722441263145) translate(162.95 84.30000000000001)"/><use xlink:href="#o" transform="matrix(-0.7071067811865475,-0.7071067811865476,0.7071067811865476,-0.7071067811865475,1294.9710078221372,85.99722441263145) translate(64.125 105.9)"/><use xlink:href="#p" transform="matrix(-0.7071067811865475,-0.7071067811865476,0.7071067811865476,-0.7071067811865475,1294.9710078221372,85.99722441263145) translate(103.075 105.9)"/><use xlink:href="#q" transform="matrix(-0.7071067811865475,-0.7071067811865476,0.7071067811865476,-0.7071067811865475,1294.9710078221372,85.99722441263145) translate(117.025 105.9)"/><use xlink:href="#r" transform="matrix(-0.7071067811865475,-0.7071067811865476,0.7071067811865476,-0.7071067811865475,1294.9710078221372,85.99722441263145) translate(165.97500000000002 105.9)"/></g><path d="M20 667h140v233H20z" fill="none"/><path d="M160 900c-8.04 0-14.56-6.52-14.56-14.56v-87.38c0-8.04-6.52-14.56-14.56-14.56 8.04 0 14.56-6.52 14.56-14.56v-87.38c0-8.04 6.52-14.56 14.56-14.56" stroke="#000" stroke-width="2" fill="none"/><g><use xlink:href="#v" transform="matrix(1,0,0,1,25,672) translate(0.5 104.30000000000001)"/><use xlink:href="#g" transform="matrix(1,0,0,1,25,672) translate(12.549999999999997 125.9)"/></g><path d="M333 400h80v160h-80z" fill="none"/><path d="M413 560c-5.52 0-10-4.48-10-10v-60c0-5.52-4.48-10-10-10 5.52 0 10-4.48 10-10v-60c0-5.52 4.48-10 10-10" stroke="#000" stroke-width="2" fill="none"/><g><use xlink:href="#w" transform="matrix(1,0,0,1,338,405) translate(-5.475000000000001 14.4)"/><use xlink:href="#x" transform="matrix(1,0,0,1,338,405) translate(2.0500000000000007 36)"/><use xlink:href="#n" transform="matrix(1,0,0,1,338,405) translate(-23 57.6)"/><use xlink:href="#y" transform="matrix(1,0,0,1,338,405) translate(-6.450000000000003 79.20000000000002)"/><use xlink:href="#z" transform="matrix(1,0,0,1,338,405) translate(-15.975000000000001 100.80000000000001)"/><use xlink:href="#t" transform="matrix(1,0,0,1,338,405) translate(12.5 122.4)"/><use xlink:href="#A" transform="matrix(1,0,0,1,338,405) translate(-4.950000000000003 144)"/><use xlink:href="#B" transform="matrix(1,0,0,1,338,405) translate(1.5499999999999972 165.6)"/></g><path d="M-1040 180h800v740h-800z" fill="none"/><path d="M-240 920c-25.54 0-46.25-20.7-46.25-46.25v-277.5c0-25.54-20.7-46.25-46.25-46.25 25.54 0 46.25-20.7 46.25-46.25v-277.5c0-25.54 20.7-46.25 46.25-46.25" stroke="#000" stroke-width="2" fill="none"/><g><use xlink:href="#C" transform="matrix(1,0,0,1,-1035,185) translate(252.075 368.59999999999997)"/><use xlink:href="#D" transform="matrix(1,0,0,1,-1035,185) translate(347.025 368.59999999999997)"/></g><defs><path d="M190 0L58-211 59 0H30v-248h39L202-35l-2-213h31V0h-41" id="E"/><path d="M100-194c62-1 85 37 85 99 1 63-27 99-86 99S16-35 15-95c0-66 28-99 85-99zM99-20c44 1 53-31 53-75 0-43-8-75-51-75s-53 32-53 75 10 74 51 75" id="F"/><path d="M85-194c31 0 48 13 60 33l-1-100h32l1 261h-30c-2-10 0-23-3-31C134-8 116 4 85 4 32 4 16-35 15-94c0-66 23-100 70-100zm9 24c-40 0-46 34-46 75 0 40 6 74 45 74 42 0 51-32 51-76 0-42-9-74-50-73" id="G"/><path d="M100-194c63 0 86 42 84 106H49c0 40 14 67 53 68 26 1 43-12 49-29l28 8c-11 28-37 45-77 45C44 4 14-33 15-96c1-61 26-98 85-98zm52 81c6-60-76-77-97-28-3 7-6 17-6 28h103" id="H"/><g id="a"><use transform="matrix(0.05,0,0,0.05,0,0)" xlink:href="#E"/><use transform="matrix(0.05,0,0,0.05,12.950000000000001,0)" xlink:href="#F"/><use transform="matrix(0.05,0,0,0.05,22.950000000000003,0)" xlink:href="#G"/><use transform="matrix(0.05,0,0,0.05,32.95,0)" xlink:href="#H"/></g><path d="M117-194c89-4 53 116 60 194h-32v-121c0-31-8-49-39-48C34-167 62-67 57 0H25l-1-190h30c1 10-1 24 2 32 11-22 29-35 61-36" id="I"/><path d="M16-82v-28h88v28H16" id="J"/><path d="M27 0v-27h64v-190l-56 39v-29l58-41h29v221h61V0H27" id="K"/><g id="b"><use transform="matrix(0.05,0,0,0.05,0,0)" xlink:href="#I"/><use transform="matrix(0.05,0,0,0.05,10,0)" xlink:href="#J"/><use transform="matrix(0.05,0,0,0.05,15.949999999999998,0)" xlink:href="#K"/></g><path d="M115-194c53 0 69 39 70 98 0 66-23 100-70 100C84 3 66-7 56-30L54 0H23l1-261h32v101c10-23 28-34 59-34zm-8 174c40 0 45-34 45-75 0-40-5-75-45-74-42 0-51 32-51 76 0 43 10 73 51 73" id="L"/><path d="M24 0v-261h32V0H24" id="M"/><path d="M96-169c-40 0-48 33-48 73s9 75 48 75c24 0 41-14 43-38l32 2c-6 37-31 61-74 61-59 0-76-41-82-99-10-93 101-131 147-64 4 7 5 14 7 22l-32 3c-4-21-16-35-41-35" id="N"/><path d="M143 0L79-87 56-68V0H24v-261h32v163l83-92h37l-77 82L181 0h-38" id="O"/><g id="c"><use transform="matrix(0.05,0,0,0.05,0,0)" xlink:href="#L"/><use transform="matrix(0.05,0,0,0.05,10,0)" xlink:href="#M"/><use transform="matrix(0.05,0,0,0.05,13.949999999999998,0)" xlink:href="#F"/><use transform="matrix(0.05,0,0,0.05,23.95,0)" xlink:href="#N"/><use transform="matrix(0.05,0,0,0.05,32.95,0)" xlink:href="#O"/></g><path d="M210-169c-67 3-38 105-44 169h-31v-121c0-29-5-50-35-48C34-165 62-65 56 0H25l-1-190h30c1 10-1 24 2 32 10-44 99-50 107 0 11-21 27-35 58-36 85-2 47 119 55 194h-31v-121c0-29-5-49-35-48" id="P"/><path d="M114-163C36-179 61-72 57 0H25l-1-190h30c1 12-1 29 2 39 6-27 23-49 58-41v29" id="Q"/><g id="d"><use transform="matrix(0.05,0,0,0.05,0,0)" xlink:href="#P"/><use transform="matrix(0.05,0,0,0.05,14.950000000000001,0)" xlink:href="#F"/><use transform="matrix(0.05,0,0,0.05,24.950000000000003,0)" xlink:href="#Q"/><use transform="matrix(0.05,0,0,0.05,30.900000000000002,0)" xlink:href="#H"/></g><path d="M135-143c-3-34-86-38-87 0 15 53 115 12 119 90S17 21 10-45l28-5c4 36 97 45 98 0-10-56-113-15-118-90-4-57 82-63 122-42 12 7 21 19 24 35" id="R"/><g id="e"><use transform="matrix(0.05,0,0,0.05,0,0)" xlink:href="#I"/><use transform="matrix(0.05,0,0,0.05,10,0)" xlink:href="#F"/><use transform="matrix(0.05,0,0,0.05,20,0)" xlink:href="#G"/><use transform="matrix(0.05,0,0,0.05,30,0)" xlink:href="#H"/><use transform="matrix(0.05,0,0,0.05,40,0)" xlink:href="#R"/></g><path d="M240 0l2-218c-23 76-54 145-80 218h-23L58-218 59 0H30v-248h44l77 211c21-75 51-140 76-211h43V0h-30" id="S"/><g id="f"><use transform="matrix(0.05,0,0,0.05,0,0)" xlink:href="#S"/><use transform="matrix(0.05,0,0,0.05,14.950000000000001,0)" xlink:href="#F"/><use transform="matrix(0.05,0,0,0.05,24.950000000000003,0)" xlink:href="#Q"/><use transform="matrix(0.05,0,0,0.05,30.900000000000002,0)" xlink:href="#H"/></g><path d="M84 4C-5 8 30-112 23-190h32v120c0 31 7 50 39 49 72-2 45-101 50-169h31l1 190h-30c-1-10 1-25-2-33-11 22-28 36-60 37" id="T"/><path d="M59-47c-2 24 18 29 38 22v24C64 9 27 4 27-40v-127H5v-23h24l9-43h21v43h35v23H59v120" id="U"/><g id="g"><use transform="matrix(0.05,0,0,0.05,0,0)" xlink:href="#N"/><use transform="matrix(0.05,0,0,0.05,9,0)" xlink:href="#M"/><use transform="matrix(0.05,0,0,0.05,12.949999999999998,0)" xlink:href="#T"/><use transform="matrix(0.05,0,0,0.05,22.95,0)" xlink:href="#R"/><use transform="matrix(0.05,0,0,0.05,31.950000000000003,0)" xlink:href="#U"/><use transform="matrix(0.05,0,0,0.05,36.95,0)" xlink:href="#H"/><use transform="matrix(0.05,0,0,0.05,46.95,0)" xlink:href="#Q"/><use transform="matrix(0.05,0,0,0.05,52.900000000000006,0)" xlink:href="#R"/></g><g id="h"><use transform="matrix(0.05,0,0,0.05,0,0)" xlink:href="#E"/><use transform="matrix(0.05,0,0,0.05,12.950000000000001,0)" xlink:href="#F"/><use transform="matrix(0.05,0,0,0.05,22.950000000000003,0)" xlink:href="#G"/><use transform="matrix(0.05,0,0,0.05,32.95,0)" xlink:href="#H"/></g><use transform="matrix(0.05,0,0,0.05,0,0)" xlink:href="#I" id="i"/><g id="j"><use transform="matrix(0.05,0,0,0.05,0,0)" xlink:href="#E"/><use transform="matrix(0.05,0,0,0.05,12.950000000000001,0)" xlink:href="#F"/><use transform="matrix(0.05,0,0,0.05,22.950000000000003,0)" xlink:href="#G"/><use transform="matrix(0.05,0,0,0.05,32.95,0)" xlink:href="#H"/><use transform="matrix(0.05,0,0,0.05,42.95,0)" xlink:href="#R"/></g><path d="M160-131c35 5 61 23 61 61C221 17 115-2 30 0v-248c76 3 177-17 177 60 0 33-19 50-47 57zm-97-11c50-1 110 9 110-42 0-47-63-36-110-37v79zm0 115c55-2 124 14 124-45 0-56-70-42-124-44v89" id="V"/><g id="k"><use transform="matrix(0.05,0,0,0.05,0,0)" xlink:href="#V"/><use transform="matrix(0.05,0,0,0.05,12,0)" xlink:href="#M"/><use transform="matrix(0.05,0,0,0.05,15.949999999999998,0)" xlink:href="#F"/><use transform="matrix(0.05,0,0,0.05,25.950000000000003,0)" xlink:href="#N"/><use transform="matrix(0.05,0,0,0.05,34.95,0)" xlink:href="#O"/></g><path d="M177-190C167-65 218 103 67 71c-23-6-38-20-44-43l32-5c15 47 100 32 89-28v-30C133-14 115 1 83 1 29 1 15-40 15-95c0-56 16-97 71-98 29-1 48 16 59 35 1-10 0-23 2-32h30zM94-22c36 0 50-32 50-73 0-42-14-75-50-75-39 0-46 34-46 75s6 73 46 73" id="W"/><path d="M24-231v-30h32v30H24zM24 0v-190h32V0H24" id="X"/><path d="M115-194c55 1 70 41 70 98S169 2 115 4C84 4 66-9 55-30l1 105H24l-1-265h31l2 30c10-21 28-34 59-34zm-8 174c40 0 45-34 45-75s-6-73-45-74c-42 0-51 32-51 76 0 43 10 73 51 73" id="Y"/><g id="l"><use transform="matrix(0.05,0,0,0.05,0,0)" xlink:href="#W"/><use transform="matrix(0.05,0,0,0.05,10,0)" xlink:href="#F"/><use transform="matrix(0.05,0,0,0.05,20,0)" xlink:href="#R"/><use transform="matrix(0.05,0,0,0.05,29,0)" xlink:href="#R"/><use transform="matrix(0.05,0,0,0.05,38,0)" xlink:href="#X"/><use transform="matrix(0.05,0,0,0.05,41.95,0)" xlink:href="#Y"/><use transform="matrix(0.05,0,0,0.05,51.95,0)" xlink:href="#H"/><use transform="matrix(0.05,0,0,0.05,61.95,0)" xlink:href="#G"/></g><g id="m"><use transform="matrix(0.05,0,0,0.05,0,0)" xlink:href="#U"/><use transform="matrix(0.05,0,0,0.05,5,0)" xlink:href="#F"/></g><g id="n"><use transform="matrix(0.05,0,0,0.05,0,0)" xlink:href="#N"/><use transform="matrix(0.05,0,0,0.05,9,0)" xlink:href="#F"/><use transform="matrix(0.05,0,0,0.05,19,0)" xlink:href="#I"/><use transform="matrix(0.05,0,0,0.05,29,0)" xlink:href="#R"/><use transform="matrix(0.05,0,0,0.05,38,0)" xlink:href="#H"/><use transform="matrix(0.05,0,0,0.05,48,0)" xlink:href="#I"/><use transform="matrix(0.05,0,0,0.05,58,0)" xlink:href="#R"/><use transform="matrix(0.05,0,0,0.05,67,0)" xlink:href="#T"/><use transform="matrix(0.05,0,0,0.05,77,0)" xlink:href="#R"/></g><g id="o"><use transform="matrix(0.05,0,0,0.05,0,0)" xlink:href="#Y"/><use transform="matrix(0.05,0,0,0.05,10,0)" xlink:href="#F"/><use transform="matrix(0.05,0,0,0.05,20,0)" xlink:href="#F"/><use transform="matrix(0.05,0,0,0.05,30,0)" xlink:href="#M"/></g><g id="p"><use transform="matrix(0.05,0,0,0.05,0,0)" xlink:href="#X"/><use transform="matrix(0.05,0,0,0.05,3.95,0)" xlink:href="#U"/></g><path d="M141-36C126-15 110 5 73 4 37 3 15-17 15-53c-1-64 63-63 125-63 3-35-9-54-41-54-24 1-41 7-42 31l-33-3c5-37 33-52 76-52 45 0 72 20 72 64v82c-1 20 7 32 28 27v20c-31 9-61-2-59-35zM48-53c0 20 12 33 32 33 41-3 63-29 60-74-43 2-92-5-92 41" id="Z"/><g id="q"><use transform="matrix(0.05,0,0,0.05,0,0)" xlink:href="#N"/><use transform="matrix(0.05,0,0,0.05,9,0)" xlink:href="#Z"/><use transform="matrix(0.05,0,0,0.05,19,0)" xlink:href="#P"/><use transform="matrix(0.05,0,0,0.05,33.95,0)" xlink:href="#H"/></g><path d="M101-234c-31-9-42 10-38 44h38v23H63V0H32v-167H5v-23h27c-7-52 17-82 69-68v24" id="aa"/><g id="r"><use transform="matrix(0.05,0,0,0.05,0,0)" xlink:href="#aa"/><use transform="matrix(0.05,0,0,0.05,5,0)" xlink:href="#Q"/><use transform="matrix(0.05,0,0,0.05,10.95,0)" xlink:href="#F"/><use transform="matrix(0.05,0,0,0.05,20.95,0)" xlink:href="#P"/></g><g id="s"><use transform="matrix(0.05,0,0,0.05,0,0)" xlink:href="#V"/><use transform="matrix(0.05,0,0,0.05,12,0)" xlink:href="#M"/><use transform="matrix(0.05,0,0,0.05,15.949999999999998,0)" xlink:href="#F"/><use transform="matrix(0.05,0,0,0.05,25.950000000000003,0)" xlink:href="#N"/><use transform="matrix(0.05,0,0,0.05,34.95,0)" xlink:href="#O"/></g><g id="t"><use transform="matrix(0.05,0,0,0.05,0,0)" xlink:href="#U"/><use transform="matrix(0.05,0,0,0.05,5,0)" xlink:href="#F"/></g><g id="u"><use transform="matrix(0.05,0,0,0.05,0,0)" xlink:href="#N"/><use transform="matrix(0.05,0,0,0.05,9,0)" xlink:href="#Z"/><use transform="matrix(0.05,0,0,0.05,19,0)" xlink:href="#P"/><use transform="matrix(0.05,0,0,0.05,33.95,0)" xlink:href="#H"/></g><g id="v"><use transform="matrix(0.05,0,0,0.05,0,0)" xlink:href="#N"/><use transform="matrix(0.05,0,0,0.05,9,0)" xlink:href="#F"/><use transform="matrix(0.05,0,0,0.05,19,0)" xlink:href="#I"/><use transform="matrix(0.05,0,0,0.05,29,0)" xlink:href="#R"/><use transform="matrix(0.05,0,0,0.05,38,0)" xlink:href="#H"/><use transform="matrix(0.05,0,0,0.05,48,0)" xlink:href="#I"/><use transform="matrix(0.05,0,0,0.05,58,0)" xlink:href="#R"/><use transform="matrix(0.05,0,0,0.05,67,0)" xlink:href="#T"/><use transform="matrix(0.05,0,0,0.05,77,0)" xlink:href="#R"/></g><g id="w"><use transform="matrix(0.05,0,0,0.05,0,0)" xlink:href="#L"/><use transform="matrix(0.05,0,0,0.05,10,0)" xlink:href="#M"/><use transform="matrix(0.05,0,0,0.05,13.949999999999998,0)" xlink:href="#F"/><use transform="matrix(0.05,0,0,0.05,23.95,0)" xlink:href="#N"/><use transform="matrix(0.05,0,0,0.05,32.95,0)" xlink:href="#O"/><use transform="matrix(0.05,0,0,0.05,41.95,0)" xlink:href="#R"/></g><g id="x"><use transform="matrix(0.05,0,0,0.05,0,0)" xlink:href="#aa"/><use transform="matrix(0.05,0,0,0.05,5,0)" xlink:href="#Q"/><use transform="matrix(0.05,0,0,0.05,10.95,0)" xlink:href="#F"/><use transform="matrix(0.05,0,0,0.05,20.95,0)" xlink:href="#P"/></g><g id="y"><use transform="matrix(0.05,0,0,0.05,0,0)" xlink:href="#N"/><use transform="matrix(0.05,0,0,0.05,9,0)" xlink:href="#M"/><use transform="matrix(0.05,0,0,0.05,12.949999999999998,0)" xlink:href="#T"/><use transform="matrix(0.05,0,0,0.05,22.95,0)" xlink:href="#R"/><use transform="matrix(0.05,0,0,0.05,31.950000000000003,0)" xlink:href="#U"/><use transform="matrix(0.05,0,0,0.05,36.95,0)" xlink:href="#H"/><use transform="matrix(0.05,0,0,0.05,46.95,0)" xlink:href="#Q"/></g><g id="z"><use transform="matrix(0.05,0,0,0.05,0,0)" xlink:href="#W"/><use transform="matrix(0.05,0,0,0.05,10,0)" xlink:href="#F"/><use transform="matrix(0.05,0,0,0.05,20,0)" xlink:href="#R"/><use transform="matrix(0.05,0,0,0.05,29,0)" xlink:href="#R"/><use transform="matrix(0.05,0,0,0.05,38,0)" xlink:href="#X"/><use transform="matrix(0.05,0,0,0.05,41.95,0)" xlink:href="#Y"/><use transform="matrix(0.05,0,0,0.05,51.95,0)" xlink:href="#H"/><use transform="matrix(0.05,0,0,0.05,61.95,0)" xlink:href="#G"/></g><path d="M106-169C34-169 62-67 57 0H25v-261h32l-1 103c12-21 28-36 61-36 89 0 53 116 60 194h-32v-121c2-32-8-49-39-48" id="ab"/><g id="A"><use transform="matrix(0.05,0,0,0.05,0,0)" xlink:href="#ab"/><use transform="matrix(0.05,0,0,0.05,10,0)" xlink:href="#X"/><use transform="matrix(0.05,0,0,0.05,13.949999999999998,0)" xlink:href="#W"/><use transform="matrix(0.05,0,0,0.05,23.95,0)" xlink:href="#ab"/><use transform="matrix(0.05,0,0,0.05,33.95,0)" xlink:href="#H"/><use transform="matrix(0.05,0,0,0.05,43.95,0)" xlink:href="#Q"/></g><path d="M108 0H70L1-190h34L89-25l56-165h34" id="ac"/><g id="B"><use transform="matrix(0.05,0,0,0.05,0,0)" xlink:href="#M"/><use transform="matrix(0.05,0,0,0.05,3.95,0)" xlink:href="#H"/><use transform="matrix(0.05,0,0,0.05,13.949999999999998,0)" xlink:href="#ac"/><use transform="matrix(0.05,0,0,0.05,22.95,0)" xlink:href="#H"/><use transform="matrix(0.05,0,0,0.05,32.95,0)" xlink:href="#M"/></g><path d="M212-179c-10-28-35-45-73-45-59 0-87 40-87 99 0 60 29 101 89 101 43 0 62-24 78-52l27 14C228-24 195 4 139 4 59 4 22-46 18-125c-6-104 99-153 187-111 19 9 31 26 39 46" id="ad"/><g id="C"><use transform="matrix(0.05,0,0,0.05,0,0)" xlink:href="#ad"/><use transform="matrix(0.05,0,0,0.05,12.950000000000001,0)" xlink:href="#F"/><use transform="matrix(0.05,0,0,0.05,22.950000000000003,0)" xlink:href="#I"/><use transform="matrix(0.05,0,0,0.05,32.95,0)" xlink:href="#R"/><use transform="matrix(0.05,0,0,0.05,41.95,0)" xlink:href="#H"/><use transform="matrix(0.05,0,0,0.05,51.95,0)" xlink:href="#I"/><use transform="matrix(0.05,0,0,0.05,61.95,0)" xlink:href="#R"/><use transform="matrix(0.05,0,0,0.05,70.95,0)" xlink:href="#T"/><use transform="matrix(0.05,0,0,0.05,80.95,0)" xlink:href="#R"/></g><g id="D"><use transform="matrix(0.05,0,0,0.05,0,0)" xlink:href="#N"/><use transform="matrix(0.05,0,0,0.05,9,0)" xlink:href="#M"/><use transform="matrix(0.05,0,0,0.05,12.949999999999998,0)" xlink:href="#T"/><use transform="matrix(0.05,0,0,0.05,22.95,0)" xlink:href="#R"/><use transform="matrix(0.05,0,0,0.05,31.950000000000003,0)" xlink:href="#U"/><use transform="matrix(0.05,0,0,0.05,36.95,0)" xlink:href="#H"/><use transform="matrix(0.05,0,0,0.05,46.95,0)" xlink:href="#Q"/></g></defs></g></svg>