<svg xmlns="http://www.w3.org/2000/svg" xmlns:xlink="http://www.w3.org/1999/xlink" xmlns:lucid="lucid" width="1760" height="1360"><g transform="translate(0 0)" lucid:page-tab-id="mY744SicIasH"><path d="M0 0h1760v1360H0z" fill="#fff"/><path d="M520 927c0 44.18-35.82 80-80 80s-80-35.82-80-80 35.82-80 80-80 80 35.82 80 80z" stroke="#000" stroke-width="2" fill="#fff"/><use xlink:href="#a" transform="matrix(1,0,0,1,365,852) translate(38.05 78.60000000000001)"/><use xlink:href="#b" transform="matrix(1,0,0,1,365,852) translate(86 78.60000000000001)"/><path d="M720 600h160v120H720z" stroke="#000" stroke-width="2" fill="#fff"/><use xlink:href="#c" transform="matrix(1,0,0,1,725,605) translate(37.55 58.6)"/><use xlink:href="#b" transform="matrix(1,0,0,1,725,605) translate(86.5 58.6)"/><path d="M720 1180h160v120H720z" stroke="#000" stroke-width="2" fill="#fff"/><use xlink:href="#d" transform="matrix(1,0,0,1,725,1185) translate(38.55 37)"/><use xlink:href="#e" transform="matrix(1,0,0,1,725,1185) translate(85.5 37)"/><use xlink:href="#f" transform="matrix(1,0,0,1,725,1185) translate(10.649999999999991 58.6)"/><use xlink:href="#g" transform="matrix(1,0,0,1,725,1185) translate(96.4 58.6)"/><use xlink:href="#h" transform="matrix(1,0,0,1,725,1185) translate(52.525 80.20000000000002)"/><path d="M520 400c0 44.18-35.82 80-80 80s-80-35.82-80-80 35.82-80 80-80 80 35.82 80 80z" stroke="#000" stroke-width="2" fill="#fff"/><use xlink:href="#a" transform="matrix(1,0,0,1,365,325) translate(46.025 78.60000000000001)"/><use xlink:href="#i" transform="matrix(1,0,0,1,365,325) translate(93.975 78.60000000000001)"/><path d="M720 200h160v120H720z" stroke="#000" stroke-width="2" fill="#fff"/><use xlink:href="#c" transform="matrix(1,0,0,1,725,205) translate(45.525 58.6)"/><use xlink:href="#i" transform="matrix(1,0,0,1,725,205) translate(94.475 58.6)"/><path d="M719 1181.33l-263.5-163.7" stroke="#000" stroke-width="2" fill="none"/><path d="M720 1180.78v2.35l-1.53-.95 1.06-1.7zM457.3 1013.3l-4.88 7.87-9.67-11.46z"/><path d="M458.9 1012.66l-6.36 10.2L440 1008zm-6.6 6.82l3.44-5.54-10.24-2.52z"/><path d="M521 927l264.33-195.17" stroke="#000" stroke-width="2" fill="none"/><path d="M521.6 927.8l-1.66 1.23.06-2.03v-.5l.4-.3zM788.67 735.12l-5.5-7.45 14.23-4.75z"/><path d="M788.7 736.83l-7.16-9.68L800 721zm-3.9-8.65l3.86 5.24 6.13-8.58z"/><path d="M441.87 599l-1.58-99.77" stroke="#000" stroke-width="2" fill="none"/><path d="M442.9 600h-2l-.03-.98 2-.04zM444.9 498.43l-9.26.14 4.4-14.33z"/><path d="M446.3 499.4l-12.02.2L440 481zm-9.3-1.85l6.52-.1-3.42-9.98z"/><path d="M521 400l261.45-74.03" stroke="#000" stroke-width="2" fill="none"/><path d="M521.27 400.96l-1.3.37.03-1.33v-.75l.73-.2zM796.9 321.88l-12.48 8.35-2.52-8.92z"/><path d="M800 321l-16.16 10.82-3.28-11.56zm-15 7.63l8.77-5.87-10.54-.4z"/><g><path d="M502.8 600v125.33h60.94L441.87 847.2 320 725.33h60.94V600z" stroke="#000" stroke-width="2" fill="#fff"/></g><g><use xlink:href="#j" transform="matrix(6.123233995736766e-17,-1,1,6.123233995736766e-17,325.0000000000002,842.2000818683575) translate(88.05 99)"/><use xlink:href="#k" transform="matrix(6.123233995736766e-17,-1,1,6.123233995736766e-17,325.0000000000002,842.2000818683575) translate(86.025 120.6)"/><use xlink:href="#l" transform="matrix(6.123233995736766e-17,-1,1,6.123233995736766e-17,325.0000000000002,842.2000818683575) translate(119 142.2)"/></g><path d="M800 599L457.33 486.68" stroke="#000" stroke-width="2" fill="none"/><path d="M803.16 598.98l-.33 1.02h-3l-.14-.05.6-1.9zM458.08 482.05l-2.9 8.8-12.1-8.84z"/><path d="M459.45 481.05l-3.74 11.43L440 481zm-4.78 8.2l2.03-6.2-10.55-.03z"/><defs><path d="M190 0L58-211 59 0H30v-248h39L202-35l-2-213h31V0h-41" id="m"/><path d="M100-194c62-1 85 37 85 99 1 63-27 99-86 99S16-35 15-95c0-66 28-99 85-99zM99-20c44 1 53-31 53-75 0-43-8-75-51-75s-53 32-53 75 10 74 51 75" id="n"/><path d="M85-194c31 0 48 13 60 33l-1-100h32l1 261h-30c-2-10 0-23-3-31C134-8 116 4 85 4 32 4 16-35 15-94c0-66 23-100 70-100zm9 24c-40 0-46 34-46 75 0 40 6 74 45 74 42 0 51-32 51-76 0-42-9-74-50-73" id="o"/><path d="M100-194c63 0 86 42 84 106H49c0 40 14 67 53 68 26 1 43-12 49-29l28 8c-11 28-37 45-77 45C44 4 14-33 15-96c1-61 26-98 85-98zm52 81c6-60-76-77-97-28-3 7-6 17-6 28h103" id="p"/><g id="a"><use transform="matrix(0.05,0,0,0.05,0,0)" xlink:href="#m"/><use transform="matrix(0.05,0,0,0.05,12.950000000000001,0)" xlink:href="#n"/><use transform="matrix(0.05,0,0,0.05,22.950000000000003,0)" xlink:href="#o"/><use transform="matrix(0.05,0,0,0.05,32.95,0)" xlink:href="#p"/></g><path d="M117-194c89-4 53 116 60 194h-32v-121c0-31-8-49-39-48C34-167 62-67 57 0H25l-1-190h30c1 10-1 24 2 32 11-22 29-35 61-36" id="q"/><path d="M16-82v-28h88v28H16" id="r"/><path d="M27 0v-27h64v-190l-56 39v-29l58-41h29v221h61V0H27" id="s"/><g id="b"><use transform="matrix(0.05,0,0,0.05,0,0)" xlink:href="#q"/><use transform="matrix(0.05,0,0,0.05,10,0)" xlink:href="#r"/><use transform="matrix(0.05,0,0,0.05,15.949999999999998,0)" xlink:href="#s"/></g><path d="M160-131c35 5 61 23 61 61C221 17 115-2 30 0v-248c76 3 177-17 177 60 0 33-19 50-47 57zm-97-11c50-1 110 9 110-42 0-47-63-36-110-37v79zm0 115c55-2 124 14 124-45 0-56-70-42-124-44v89" id="t"/><path d="M24 0v-261h32V0H24" id="u"/><path d="M96-169c-40 0-48 33-48 73s9 75 48 75c24 0 41-14 43-38l32 2c-6 37-31 61-74 61-59 0-76-41-82-99-10-93 101-131 147-64 4 7 5 14 7 22l-32 3c-4-21-16-35-41-35" id="v"/><path d="M143 0L79-87 56-68V0H24v-261h32v163l83-92h37l-77 82L181 0h-38" id="w"/><g id="c"><use transform="matrix(0.05,0,0,0.05,0,0)" xlink:href="#t"/><use transform="matrix(0.05,0,0,0.05,12,0)" xlink:href="#u"/><use transform="matrix(0.05,0,0,0.05,15.949999999999998,0)" xlink:href="#n"/><use transform="matrix(0.05,0,0,0.05,25.950000000000003,0)" xlink:href="#v"/><use transform="matrix(0.05,0,0,0.05,34.95,0)" xlink:href="#w"/></g><path d="M115-194c53 0 69 39 70 98 0 66-23 100-70 100C84 3 66-7 56-30L54 0H23l1-261h32v101c10-23 28-34 59-34zm-8 174c40 0 45-34 45-75 0-40-5-75-45-74-42 0-51 32-51 76 0 43 10 73 51 73" id="x"/><g id="d"><use transform="matrix(0.05,0,0,0.05,0,0)" xlink:href="#x"/><use transform="matrix(0.05,0,0,0.05,10,0)" xlink:href="#u"/><use transform="matrix(0.05,0,0,0.05,13.949999999999998,0)" xlink:href="#n"/><use transform="matrix(0.05,0,0,0.05,23.95,0)" xlink:href="#v"/><use transform="matrix(0.05,0,0,0.05,32.95,0)" xlink:href="#w"/></g><path d="M101-251c82-7 93 87 43 132L82-64C71-53 59-42 53-27h129V0H18c2-99 128-94 128-182 0-28-16-43-45-43s-46 15-49 41l-32-3c6-41 34-60 81-64" id="y"/><g id="e"><use transform="matrix(0.05,0,0,0.05,0,0)" xlink:href="#q"/><use transform="matrix(0.05,0,0,0.05,10,0)" xlink:href="#r"/><use transform="matrix(0.05,0,0,0.05,15.949999999999998,0)" xlink:href="#y"/></g><path d="M87 75C49 33 22-17 22-94c0-76 28-126 65-167h31c-38 41-64 92-64 168S80 34 118 75H87" id="z"/><path d="M24-231v-30h32v30H24zM24 0v-190h32V0H24" id="A"/><path d="M108 0H70L1-190h34L89-25l56-165h34" id="B"/><path d="M84 4C-5 8 30-112 23-190h32v120c0 31 7 50 39 49 72-2 45-101 50-169h31l1 190h-30c-1-10 1-25-2-33-11 22-28 36-60 37" id="C"/><path d="M141-36C126-15 110 5 73 4 37 3 15-17 15-53c-1-64 63-63 125-63 3-35-9-54-41-54-24 1-41 7-42 31l-33-3c5-37 33-52 76-52 45 0 72 20 72 64v82c-1 20 7 32 28 27v20c-31 9-61-2-59-35zM48-53c0 20 12 33 32 33 41-3 63-29 60-74-43 2-92-5-92 41" id="D"/><g id="f"><use transform="matrix(0.05,0,0,0.05,0,0)" xlink:href="#z"/><use transform="matrix(0.05,0,0,0.05,5.95,0)" xlink:href="#A"/><use transform="matrix(0.05,0,0,0.05,9.9,0)" xlink:href="#q"/><use transform="matrix(0.05,0,0,0.05,19.9,0)" xlink:href="#o"/><use transform="matrix(0.05,0,0,0.05,29.899999999999995,0)" xlink:href="#A"/><use transform="matrix(0.05,0,0,0.05,33.85,0)" xlink:href="#B"/><use transform="matrix(0.05,0,0,0.05,42.85,0)" xlink:href="#A"/><use transform="matrix(0.05,0,0,0.05,46.800000000000004,0)" xlink:href="#o"/><use transform="matrix(0.05,0,0,0.05,56.800000000000004,0)" xlink:href="#C"/><use transform="matrix(0.05,0,0,0.05,66.80000000000001,0)" xlink:href="#D"/><use transform="matrix(0.05,0,0,0.05,76.80000000000001,0)" xlink:href="#u"/></g><path d="M106-169C34-169 62-67 57 0H25v-261h32l-1 103c12-21 28-36 61-36 89 0 53 116 60 194h-32v-121c2-32-8-49-39-48" id="E"/><g id="g"><use transform="matrix(0.05,0,0,0.05,0,0)" xlink:href="#v"/><use transform="matrix(0.05,0,0,0.05,9,0)" xlink:href="#E"/><use transform="matrix(0.05,0,0,0.05,19,0)" xlink:href="#D"/><use transform="matrix(0.05,0,0,0.05,29,0)" xlink:href="#A"/><use transform="matrix(0.05,0,0,0.05,32.95,0)" xlink:href="#q"/></g><path d="M135-143c-3-34-86-38-87 0 15 53 115 12 119 90S17 21 10-45l28-5c4 36 97 45 98 0-10-56-113-15-118-90-4-57 82-63 122-42 12 7 21 19 24 35" id="F"/><path d="M33-261c38 41 65 92 65 168S71 34 33 75H2C39 34 66-17 66-93S39-220 2-261h31" id="G"/><g id="h"><use transform="matrix(0.05,0,0,0.05,0,0)" xlink:href="#F"/><use transform="matrix(0.05,0,0,0.05,9,0)" xlink:href="#p"/><use transform="matrix(0.05,0,0,0.05,19,0)" xlink:href="#p"/><use transform="matrix(0.05,0,0,0.05,29,0)" xlink:href="#o"/><use transform="matrix(0.05,0,0,0.05,39,0)" xlink:href="#G"/></g><use transform="matrix(0.05,0,0,0.05,0,0)" xlink:href="#q" id="i"/><path d="M233-177c-1 41-23 64-60 70L243 0h-38l-65-103H63V0H30v-248c88 3 205-21 203 71zM63-129c60-2 137 13 137-47 0-61-80-42-137-45v92" id="H"/><path d="M59-47c-2 24 18 29 38 22v24C64 9 27 4 27-40v-127H5v-23h24l9-43h21v43h35v23H59v120" id="I"/><path d="M177-190C167-65 218 103 67 71c-23-6-38-20-44-43l32-5c15 47 100 32 89-28v-30C133-14 115 1 83 1 29 1 15-40 15-95c0-56 16-97 71-98 29-1 48 16 59 35 1-10 0-23 2-32h30zM94-22c36 0 50-32 50-73 0-42-14-75-50-75-39 0-46 34-46 75s6 73 46 73" id="J"/><g id="j"><use transform="matrix(0.05,0,0,0.05,0,0)" xlink:href="#H"/><use transform="matrix(0.05,0,0,0.05,12.950000000000001,0)" xlink:href="#n"/><use transform="matrix(0.05,0,0,0.05,22.950000000000003,0)" xlink:href="#C"/><use transform="matrix(0.05,0,0,0.05,32.95,0)" xlink:href="#I"/><use transform="matrix(0.05,0,0,0.05,37.95,0)" xlink:href="#A"/><use transform="matrix(0.05,0,0,0.05,41.900000000000006,0)" xlink:href="#q"/><use transform="matrix(0.05,0,0,0.05,51.900000000000006,0)" xlink:href="#J"/></g><path d="M185-189c-5-48-123-54-124 2 14 75 158 14 163 119 3 78-121 87-175 55-17-10-28-26-33-46l33-7c5 56 141 63 141-1 0-78-155-14-162-118-5-82 145-84 179-34 5 7 8 16 11 25" id="K"/><g id="k"><use transform="matrix(0.05,0,0,0.05,0,0)" xlink:href="#K"/><use transform="matrix(0.05,0,0,0.05,12,0)" xlink:href="#p"/><use transform="matrix(0.05,0,0,0.05,22,0)" xlink:href="#p"/><use transform="matrix(0.05,0,0,0.05,32,0)" xlink:href="#o"/><use transform="matrix(0.05,0,0,0.05,42,0)" xlink:href="#A"/><use transform="matrix(0.05,0,0,0.05,45.95,0)" xlink:href="#q"/><use transform="matrix(0.05,0,0,0.05,55.95,0)" xlink:href="#J"/></g></defs></g></svg>